<?xml version="1.0" encoding="utf-8"?><svg xmlns="http://www.w3.org/2000/svg" xmlns:xlink="http://www.w3.org/1999/xlink" width="500" height="583.50" viewBox="0 0 500 583.50" style="fill: #000000"><rect x="15.00" y="15.00" width="471.70" height="471.70" fill="#ffffff" fill-opacity="1" /><g transform="scale(20.83) translate(0 0)"><path d="M22.7,0H1.3C0.6,0,0,0.6,0,1.3v25.3C0,27.4,0.6,28,1.3,28h21.3c0.7,0,1.3-0.6,1.3-1.3V1.3C24,0.6,23.4,0,22.7,0 z M23,22c0,0.6-0.5,1-1,1H2c-0.6,0-1-0.5-1-1V2c0-0.6,0.5-1,1-1h20c0.6,0,1,0.5,1,1V22z" />
                            
                        </g><g transform="scale(0.85) translate(43.48 43.48)"><svg xmlns="http://www.w3.org/2000/svg" version="1.1" width="500" height="500" viewBox="0 0 500 500"><g transform="scale(17.241)"><g transform="translate(0,0)"><path d="M9 0L9 1L8 1L8 2L9 2L9 3L8 3L8 4L9 4L9 5L8 5L8 7L9 7L9 8L6 8L6 9L9 9L9 10L8 10L8 11L9 11L9 13L8 13L8 15L7 15L7 14L6 14L6 15L7 15L7 16L4 16L4 17L5 17L5 19L4 19L4 21L7 21L7 20L5 20L5 19L7 19L7 18L6 18L6 17L7 17L7 16L8 16L8 18L9 18L9 19L10 19L10 20L9 20L9 21L8 21L8 23L9 23L9 24L8 24L8 29L9 29L9 27L10 27L10 29L11 29L11 28L12 28L12 29L13 29L13 27L14 27L14 28L15 28L15 29L16 29L16 28L17 28L17 29L19 29L19 28L20 28L20 29L21 29L21 28L22 28L22 29L26 29L26 27L28 27L28 28L29 28L29 27L28 27L28 26L26 26L26 23L27 23L27 25L29 25L29 23L27 23L27 22L28 22L28 20L29 20L29 19L28 19L28 18L29 18L29 17L28 17L28 18L26 18L26 15L27 15L27 16L29 16L29 15L27 15L27 14L26 14L26 13L25 13L25 11L24 11L24 10L23 10L23 11L20 11L20 12L21 12L21 13L19 13L19 12L15 12L15 11L14 11L14 10L13 10L13 9L14 9L14 8L15 8L15 10L16 10L16 11L19 11L19 10L20 10L20 9L21 9L21 10L22 10L22 8L20 8L20 7L21 7L21 5L19 5L19 3L20 3L20 2L21 2L21 1L20 1L20 2L19 2L19 1L17 1L17 0L14 0L14 1L13 1L13 0L12 0L12 1L10 1L10 0ZM9 1L9 2L10 2L10 4L11 4L11 5L9 5L9 7L10 7L10 6L11 6L11 7L12 7L12 6L13 6L13 8L9 8L9 9L11 9L11 10L10 10L10 14L9 14L9 15L8 15L8 16L9 16L9 17L10 17L10 16L9 16L9 15L10 15L10 14L11 14L11 18L10 18L10 19L13 19L13 20L10 20L10 22L9 22L9 23L10 23L10 24L9 24L9 26L10 26L10 25L11 25L11 26L12 26L12 27L13 27L13 26L14 26L14 27L15 27L15 28L16 28L16 27L17 27L17 28L19 28L19 27L17 27L17 26L18 26L18 25L16 25L16 27L15 27L15 26L14 26L14 25L15 25L15 24L19 24L19 26L20 26L20 28L21 28L21 27L22 27L22 28L25 28L25 26L24 26L24 27L23 27L23 26L21 26L21 25L20 25L20 22L19 22L19 23L14 23L14 21L15 21L15 22L16 22L16 21L15 21L15 20L17 20L17 22L18 22L18 21L20 21L20 20L22 20L22 19L23 19L23 20L24 20L24 19L25 19L25 21L26 21L26 22L25 22L25 23L26 23L26 22L27 22L27 21L26 21L26 20L28 20L28 19L25 19L25 16L24 16L24 15L26 15L26 14L24 14L24 12L22 12L22 13L21 13L21 14L19 14L19 15L14 15L14 13L15 13L15 12L14 12L14 11L12 11L12 9L13 9L13 8L14 8L14 6L15 6L15 7L16 7L16 6L17 6L17 8L16 8L16 10L18 10L18 9L20 9L20 8L19 8L19 7L20 7L20 6L19 6L19 7L18 7L18 6L17 6L17 5L18 5L18 3L19 3L19 2L17 2L17 1L16 1L16 2L15 2L15 1L14 1L14 2L13 2L13 1L12 1L12 2L13 2L13 3L11 3L11 2L10 2L10 1ZM14 2L14 3L15 3L15 4L16 4L16 3L17 3L17 2L16 2L16 3L15 3L15 2ZM12 4L12 5L11 5L11 6L12 6L12 5L13 5L13 6L14 6L14 5L13 5L13 4ZM15 5L15 6L16 6L16 5ZM0 8L0 12L2 12L2 14L0 14L0 15L1 15L1 16L0 16L0 21L1 21L1 16L2 16L2 19L3 19L3 13L7 13L7 12L6 12L6 11L7 11L7 10L6 10L6 11L5 11L5 10L3 10L3 11L1 11L1 9L5 9L5 8ZM23 8L23 9L24 9L24 8ZM25 8L25 10L26 10L26 12L27 12L27 10L28 10L28 8L27 8L27 10L26 10L26 8ZM4 11L4 12L5 12L5 11ZM11 11L11 12L12 12L12 11ZM28 11L28 12L29 12L29 11ZM13 12L13 13L14 13L14 12ZM17 13L17 14L18 14L18 13ZM12 14L12 15L13 15L13 14ZM23 14L23 15L19 15L19 16L18 16L18 17L19 17L19 16L21 16L21 17L22 17L22 18L13 18L13 19L19 19L19 20L20 20L20 19L22 19L22 18L23 18L23 19L24 19L24 18L23 18L23 17L22 17L22 16L23 16L23 15L24 15L24 14ZM13 16L13 17L17 17L17 16ZM2 20L2 21L3 21L3 20ZM11 21L11 22L13 22L13 21ZM21 21L21 24L24 24L24 21ZM22 22L22 23L23 23L23 22ZM11 23L11 24L12 24L12 26L13 26L13 23ZM0 0L7 0L7 7L0 7ZM1 1L1 6L6 6L6 1ZM2 2L5 2L5 5L2 5ZM22 0L29 0L29 7L22 7ZM23 1L23 6L28 6L28 1ZM24 2L27 2L27 5L24 5ZM0 22L7 22L7 29L0 29ZM1 23L1 28L6 28L6 23ZM2 24L5 24L5 27L2 27Z" style="fill-rule: evenodd; fill: #000000" /></g></g></svg></g><svg><text x="50%" y="92%" style="dominant-baseline: middle; text-anchor: middle; font-weight: 100; font-size: 50.00px; fill: #627EEA; font-family: Monaco, monospace">Ethereum</text></svg></svg>