<?xml version="1.0" encoding="utf-8"?><svg xmlns="http://www.w3.org/2000/svg" xmlns:xlink="http://www.w3.org/1999/xlink" width="500" height="583.50" viewBox="0 0 500 583.50" style="fill: #000000"><rect x="15.00" y="15.00" width="471.70" height="471.70" fill="#ffffff" fill-opacity="1" /><g transform="scale(20.83) translate(0 0)"><path d="M22.7,0H1.3C0.6,0,0,0.6,0,1.3v25.3C0,27.4,0.6,28,1.3,28h21.3c0.7,0,1.3-0.6,1.3-1.3V1.3C24,0.6,23.4,0,22.7,0 z M23,22c0,0.6-0.5,1-1,1H2c-0.6,0-1-0.5-1-1V2c0-0.6,0.5-1,1-1h20c0.6,0,1,0.5,1,1V22z" />
                            
                        </g><g transform="scale(0.85) translate(43.48 43.48)"><svg xmlns="http://www.w3.org/2000/svg" version="1.1" width="500" height="500" viewBox="0 0 500 500"><g transform="scale(17.241)"><g transform="translate(0,0)"><path d="M9 0L9 1L8 1L8 2L9 2L9 1L10 1L10 0ZM11 0L11 1L13 1L13 3L12 3L12 2L10 2L10 3L8 3L8 4L9 4L9 5L8 5L8 7L9 7L9 8L6 8L6 9L5 9L5 8L0 8L0 9L3 9L3 10L0 10L0 11L1 11L1 12L2 12L2 15L3 15L3 14L4 14L4 15L5 15L5 14L6 14L6 15L7 15L7 14L6 14L6 13L8 13L8 14L9 14L9 15L8 15L8 16L9 16L9 15L10 15L10 13L11 13L11 14L12 14L12 15L11 15L11 16L12 16L12 15L14 15L14 16L13 16L13 17L7 17L7 16L6 16L6 17L5 17L5 16L4 16L4 17L3 17L3 16L1 16L1 15L0 15L0 21L1 21L1 17L3 17L3 18L4 18L4 19L2 19L2 20L4 20L4 21L8 21L8 23L9 23L9 24L8 24L8 29L9 29L9 25L10 25L10 28L12 28L12 27L14 27L14 28L15 28L15 29L16 29L16 28L15 28L15 27L17 27L17 29L19 29L19 28L18 28L18 26L23 26L23 25L25 25L25 26L26 26L26 27L25 27L25 28L24 28L24 27L23 27L23 28L22 28L22 29L23 29L23 28L24 28L24 29L25 29L25 28L26 28L26 29L27 29L27 27L28 27L28 28L29 28L29 27L28 27L28 26L26 26L26 24L27 24L27 25L29 25L29 23L27 23L27 22L28 22L28 20L29 20L29 19L28 19L28 18L29 18L29 17L27 17L27 16L29 16L29 15L28 15L28 14L29 14L29 13L27 13L27 14L26 14L26 13L24 13L24 12L26 12L26 11L27 11L27 12L29 12L29 10L26 10L26 8L25 8L25 9L24 9L24 8L23 8L23 9L24 9L24 10L23 10L23 11L22 11L22 12L21 12L21 13L22 13L22 12L23 12L23 13L24 13L24 14L26 14L26 15L27 15L27 16L25 16L25 15L22 15L22 16L25 16L25 17L24 17L24 18L26 18L26 19L22 19L22 20L21 20L21 18L23 18L23 17L21 17L21 18L20 18L20 17L18 17L18 16L21 16L21 15L20 15L20 14L19 14L19 15L18 15L18 14L17 14L17 13L18 13L18 12L17 12L17 11L19 11L19 12L20 12L20 11L21 11L21 9L22 9L22 8L20 8L20 7L21 7L21 2L19 2L19 3L20 3L20 4L19 4L19 5L20 5L20 7L19 7L19 6L18 6L18 5L17 5L17 6L16 6L16 8L15 8L15 5L16 5L16 3L17 3L17 2L18 2L18 1L17 1L17 0L15 0L15 1L13 1L13 0ZM19 0L19 1L21 1L21 0ZM16 1L16 2L14 2L14 3L13 3L13 5L14 5L14 3L16 3L16 2L17 2L17 1ZM10 3L10 4L12 4L12 3ZM10 5L10 6L9 6L9 7L10 7L10 9L6 9L6 10L8 10L8 13L9 13L9 12L11 12L11 13L12 13L12 14L15 14L15 13L13 13L13 10L14 10L14 9L15 9L15 8L13 8L13 7L14 7L14 6L13 6L13 7L12 7L12 6L11 6L11 5ZM10 6L10 7L11 7L11 8L12 8L12 7L11 7L11 6ZM17 6L17 8L16 8L16 10L15 10L15 11L14 11L14 12L16 12L16 10L18 10L18 8L19 8L19 11L20 11L20 8L19 8L19 7L18 7L18 6ZM27 8L27 9L28 9L28 8ZM4 9L4 10L5 10L5 9ZM10 10L10 11L11 11L11 12L12 12L12 11L11 11L11 10ZM24 10L24 11L23 11L23 12L24 12L24 11L25 11L25 10ZM3 11L3 12L4 12L4 11ZM6 11L6 12L7 12L7 11ZM0 13L0 14L1 14L1 13ZM15 15L15 16L14 16L14 17L13 17L13 18L9 18L9 19L8 19L8 18L7 18L7 17L6 17L6 18L5 18L5 19L4 19L4 20L8 20L8 21L9 21L9 20L10 20L10 22L9 22L9 23L12 23L12 24L10 24L10 25L11 25L11 26L16 26L16 25L17 25L17 26L18 26L18 25L19 25L19 24L20 24L20 20L19 20L19 22L18 22L18 21L17 21L17 19L16 19L16 18L18 18L18 19L20 19L20 18L18 18L18 17L16 17L16 18L15 18L15 16L17 16L17 15ZM26 17L26 18L27 18L27 17ZM6 18L6 19L7 19L7 18ZM13 18L13 19L14 19L14 20L12 20L12 19L11 19L11 20L12 20L12 21L14 21L14 22L13 22L13 23L14 23L14 24L13 24L13 25L16 25L16 24L17 24L17 25L18 25L18 24L17 24L17 23L18 23L18 22L15 22L15 21L16 21L16 20L15 20L15 19L14 19L14 18ZM27 19L27 20L28 20L28 19ZM14 20L14 21L15 21L15 20ZM21 21L21 24L24 24L24 21ZM26 21L26 22L25 22L25 24L26 24L26 22L27 22L27 21ZM14 22L14 23L15 23L15 24L16 24L16 23L15 23L15 22ZM22 22L22 23L23 23L23 22ZM20 27L20 29L21 29L21 27ZM0 0L7 0L7 7L0 7ZM1 1L1 6L6 6L6 1ZM2 2L5 2L5 5L2 5ZM22 0L29 0L29 7L22 7ZM23 1L23 6L28 6L28 1ZM24 2L27 2L27 5L24 5ZM0 22L7 22L7 29L0 29ZM1 23L1 28L6 28L6 23ZM2 24L5 24L5 27L2 27Z" style="fill-rule: evenodd; fill: #000000" /></g></g></svg></g><svg><text x="50%" y="92%" style="dominant-baseline: middle; text-anchor: middle; font-weight: 100; font-size: 50.00px; fill: #F7931A; font-family: Monaco, monospace">Bitcoin</text></svg></svg>